<svg xmlns="http://www.w3.org/2000/svg" width="1000" height="852" fill="none"><g clip-path="url(#a)"><path fill="#E8CC94" d="M152.831.084h60.509l5.378 10.757 2.778 5.537 3.828 7.638 1.989 3.963a1231.903 1231.903 0 0 1 11.664 23.82c2.708 5.685 5.525 11.308 8.398 16.911.608 1.19 1.212 2.383 1.816 3.575l1.052 2.06c.747 1.711.747 1.711.747 3.728l2.311-.588c8.876-1.95 17.92-2.375 26.977-2.353h1.605c14.82.031 30.175 1.296 44.407 5.63l2.055.623c9.341 2.878 18.352 5.952 26.855 10.807l1.246.692c6.974 3.89 13.322 8.501 19.596 13.427l2.038 1.599c3.969 3.188 7.735 6.568 11.461 10.032a310.11 310.11 0 0 0 5.536 4.967 67.204 67.204 0 0 1 6.637 6.852 78.746 78.746 0 0 0 2.673 2.957c22.751 24.009 22.751 24.009 22.751 35.447l2.474-.865c4.081-1.359 8.234-2.405 12.402-3.464l4.879-1.252 2.343-.601a769.265 769.265 0 0 0 7.485-1.97l2.348-.628c1.642-.441 3.285-.884 4.926-1.329 21.685-5.832 43.538-11.211 65.846-14.018 5.197-.663 10.343-1.559 15.5-2.472 6.134-1.085 12.233-2.065 18.431-2.676 2.66-.323 5.264-.791 7.897-1.282 3.665-.667 7.347-1.23 11.028-1.799l2.34-.37 2.256-.35 2.023-.315c1.766-.213 3.455-.267 5.231-.226l.824-2.551c1.25-3.748 2.689-7.411 4.147-11.082l.864-2.183c.925-2.334 1.852-4.668 2.779-7.001l.959-2.418a2161.24 2161.24 0 0 1 12.828-31.671c2.625-6.33 5.15-12.697 7.634-19.084 2.483-6.355 5.063-12.666 7.662-18.974 1.381-3.355 2.756-6.712 4.133-10.068.976-2.38 1.954-4.76 2.942-7.136a922.957 922.957 0 0 0 2.627-6.413l.749-1.775c1.972-4.924 1.989-8.958.932-14.108 10.42-.016 20.839-.028 31.259-.035C679.724.045 684.562.04 689.4.033c4.215-.007 8.43-.011 12.645-.013 2.234 0 4.467-.003 6.7-.007 2.489-.005 4.978-.006 7.467-.006l2.26-.007 2.043.003L722.301 0c1.332.083 1.332.083 2.004.755a66.11 66.11 0 0 1 0 3.362c-2.895 1.126-5.741 2.129-8.74 2.941-5.151 1.543-8.748 3.645-11.411 8.415-2.905 5.964-3.484 11.5-3.517 18.068l-.013 1.96c-.012 2.145-.016 4.29-.018 6.434l-.004 2.244c-.008 17.535.931 35.009 1.945 52.51 1.034 17.883 1.034 17.883.958 26.261l-.009 2.051a976.136 976.136 0 0 1-.033 4.84l1.776.1c4.501.282 8.876.724 13.312 1.526 1.815.297 3.611.547 5.437.761 7.971.94 15.87 2.183 23.766 3.612 1.101.199 2.201.396 3.302.591 11.566 2.056 22.542 5.475 33.632 9.294l1.514.518c22.103 7.591 22.103 7.591 31.299 12.009 1.545.658 1.545.658 2.819.06l1.139-.864 1.319-.969 1.409-1.09 3.078-2.271 1.622-1.214c2.712-2.012 5.475-3.95 8.243-5.885l1.708-1.197c6.097-4.251 12.316-8.302 18.587-12.292l1.934-1.232c8.727-5.547 17.535-10.908 26.569-15.941a899.145 899.145 0 0 0 5.329-3.012c21.096-11.881 43.578-19.74 67.017-25.533l2.021-.511c7.49-1.889 15.002-3.282 22.645-4.405l2.36-.35c4.647-.644 9.29-1.147 13.986-.784.672.672.672.672.714 2.395l-.042 1.638c-4.29 1.538-8.572 2.63-13.026 3.572-6.371 1.404-12.523 3.17-18.71 5.224-2.211.725-4.43 1.425-6.65 2.124l-5.063 1.602c-.797.25-1.595.5-2.416.759-3.876 1.236-7.614 2.557-11.304 4.271-1.98.899-4.022 1.6-6.071 2.324-21.512 7.875-41.693 19.545-60.468 32.566l-1.181.817c-13.478 9.37-28.172 19.907-38.486 32.799l1.363.444c2.64 1.189 4.786 2.809 7.083 4.556l1.434 1.083c3.707 2.837 7.158 5.867 10.55 9.07a115.459 115.459 0 0 0 4.656 4.134c15.863 13.843 23.991 32.085 26.011 52.651 2.101 31.228-5.926 61.811-24.204 87.402l-.998 1.405c-4.258 5.938-8.794 11.417-13.793 16.748-.802.921-1.601 1.845-2.395 2.774-2.181 2.515-4.53 4.835-6.899 7.172a73.936 73.936 0 0 0-3.69 4.047c-4.417 5.136-9.307 9.934-14.468 14.318-1.524 1.329-2.994 2.708-4.465 4.094a169.466 169.466 0 0 1-13.817 11.635 563.16 563.16 0 0 0-2.773 2.114c-12.615 9.666-26.067 17.298-40.239 24.44l-1.603.822c-17.777 9.082-37.085 14.597-56.217 20.02l-2.394.682c-13.432 3.802-27.041 6.915-40.635 10.075 3.695.789 7.393 1.465 11.13 2.023 24.441 3.686 50.059 10.627 70.221 25.543l1.673 1.221c17.622 13.462 27.45 32.761 30.599 54.581 5.334 42.912-13.392 84.576-39.149 117.841-2.627 3.344-5.376 6.583-8.142 9.812-1.675 1.958-3.288 3.961-4.898 5.972-2.368 2.912-4.896 5.555-7.582 8.173a61.34 61.34 0 0 0-3.554 3.887 143.774 143.774 0 0 1-16.078 15.928c-1.497 1.279-2.937 2.613-4.386 3.947-3.766 3.394-7.725 6.503-11.74 9.594a451.238 451.238 0 0 0-3.862 3.031c-24.091 18.915-51.365 33.795-79.802 45.04-1.106.438-2.209.882-3.31 1.33-4.237 1.723-8.524 3.262-12.849 4.75l-1.99.689a840.492 840.492 0 0 1-10.289 3.487 471.973 471.973 0 0 0-4.479 1.525c-21.213 7.265-42.847 12.426-64.83 16.698-1.666.336-3.314.704-4.966 1.101-4.843 1.095-9.799 1.669-14.715 2.342l-1.637.225c-27.78 3.803-56.585 5.247-84.538 2.373a651.42 651.42 0 0 0-7.12-.664c-18.785-1.667-37.306-4.101-55.835-7.649l-2.704-.513c-3.413-.65-6.796-1.314-10.136-2.276l-1.373-.392c-1.262-.369-2.519-.754-3.777-1.139-3.543-.627-5.826 1.034-8.679 3.013l-1.801 1.239-1.91 1.329-4.019 2.763-2.015 1.388c-13.015 8.946-26.318 17.357-40.231 24.843l-1.591.864c-7.176 3.89-14.408 7.422-21.94 10.565l-2.153.917c-7.259 3.069-14.631 5.843-22.051 8.496l-1.36.499c-16.884 6.185-34.101 10.348-51.753 13.62l-2.137.4c-22.145 3.982-50.344 4.411-69.802-8.468-8.885-6.274-15.071-14.005-17.774-24.666-1.22-8.262-1.743-17.234 2.983-24.414.235-.368.47-.737.71-1.117 8.017-12.485 19.965-20.347 32.906-27.12l1.828-.959c5.682-2.76 11.789-4.592 17.796-6.506 1.325-.423 2.646-.855 3.965-1.294 5.21-1.691 10.32-2.73 15.742-3.469l2.283-.335c8.923-1.271 17.789-1.673 26.79-1.716a2262.956 2262.956 0 0 1 15.304-.053c17.261-.016 34.353.092 51.429 2.902l1.401.227c6.742 1.098 13.426 2.414 20.114 3.807l4.95.99a287.218 287.218 0 0 1 28.446 7.306c1.651.469 3.222.899 4.926 1.117 1.824-1.177 1.824-1.177 3.572-2.984l1.03-.988a272.89 272.89 0 0 0 3.466-3.424l1.336-1.333c2.775-2.771 2.775-2.771 5.533-5.559l1.293-1.312 1.125-1.149a104.715 104.715 0 0 1 3.968-3.569c2.969-2.583 5.757-5.321 8.535-8.106l1.571-1.569c1.089-1.088 2.176-2.177 3.263-3.267 1.651-1.655 3.306-3.306 4.961-4.956l3.189-3.193 1.48-1.475c2.68-2.692 5.23-5.452 7.711-8.327 1.518-1.728 3.121-3.334 4.757-4.949l.987-.979c1.363-1.352 2.73-2.7 4.097-4.049 3.583-3.54 7.107-7.085 10.381-10.918 1.598-1.83 3.324-3.517 5.062-5.211 2.682-2.645 5.239-5.338 7.682-8.208 1.433-1.631 2.978-3.133 4.527-4.653a74.728 74.728 0 0 0 3.402-3.737c2.997-3.448 6.144-6.746 9.292-10.056a260.008 260.008 0 0 0 7.603-8.382c1.676-1.916 3.409-3.778 5.144-5.64 2.563-2.762 5.091-5.545 7.554-8.396 1.462-1.666 2.964-3.293 4.464-4.924a158.223 158.223 0 0 0 6.429-7.48 144.912 144.912 0 0 1 6.766-7.774c2.897-3.114 5.614-6.334 8.283-9.649 1.45-1.762 2.953-3.455 4.491-5.142 2.583-2.837 5.016-5.769 7.429-8.751a363.366 363.366 0 0 1 5.681-6.712 524.87 524.87 0 0 0 10.085-12.102l3.09-3.801c1.124-1.382 2.246-2.765 3.368-4.149 1.495-1.841 2.995-3.678 4.501-5.51a390.566 390.566 0 0 0 11.651-14.88 344.545 344.545 0 0 1 6.468-8.428c7.151-9.048 14.136-18.208 20.732-27.67a421.723 421.723 0 0 1 5.116-7.144c4.031-5.532 7.927-11.144 11.768-16.809 4.398-6.483 8.871-12.912 13.356-19.335 1.256-1.799 2.511-3.6 3.764-5.4 4.114-5.902 8.27-11.769 12.496-17.591a794.562 794.562 0 0 0 7.186-10.093c4.009-5.706 8.144-11.316 12.296-16.918 1.172-1.585 2.338-3.174 3.503-4.764 5.439-7.421 10.98-14.758 16.573-22.062 1.219-1.592 2.435-3.186 3.649-4.781a1006.917 1006.917 0 0 1 20.493-26.016 708.737 708.737 0 0 0 4.877-6.054c6.805-8.52 13.789-16.884 21.126-24.952l1.565-1.731 1.384-1.01c2.205-1.862 3.757-3.562 4.23-6.5.258-4.563-.155-9.118-.487-13.668-.089-1.51-.175-3.021-.258-4.531-.174-3.124-.361-6.247-.559-9.37-.385-6.225-.632-12.454-.871-18.685-.078-2.026-.161-4.05-.245-6.075-.471-11.422-.844-22.846-1.215-34.272-.507-15.484-1.165-30.959-1.88-46.434-.44-9.53-.85-19.061-1.168-28.596l-.086-2.503c-.183-5.762-.22-11.514-.19-17.278l-2.668.324c-3.035.336-6.038.48-9.089.537l-1.585.037c-1.106.026-2.213.05-3.319.074-2.857.061-5.713.131-8.569.202l-1.684.041a522.27 522.27 0 0 0-18.131.802l-.626 1.61c-.781 2.01-1.565 4.018-2.349 6.026-.337.862-.673 1.725-1.007 2.588-1.867 4.807-3.808 9.548-5.975 14.228-1.395 3.082-2.626 6.228-3.868 9.374l-1.77 4.451-.93 2.345a5521.852 5521.852 0 0 1-4.948 12.407l-.515 1.29a3275.7 3275.7 0 0 1-8.981 22.189 5453.13 5453.13 0 0 0-5.939 14.624 15528.302 15528.302 0 0 1-13.432 33.037c-4.64 11.382-9.269 22.768-13.874 34.163a12202.995 12202.995 0 0 1-13.39 32.942c-4.064 9.968-8.118 19.94-12.151 29.92a12228.72 12228.72 0 0 1-14.07 34.623c-4.064 9.968-8.117 19.94-12.151 29.92a12215.843 12215.843 0 0 1-14.062 34.605 12743.611 12743.611 0 0 0-14.031 34.561 6117.547 6117.547 0 0 1-8.71 21.429 1307.91 1307.91 0 0 0-4.353 10.797l-.91 2.287c-.562 1.414-1.122 2.828-1.68 4.244-1.263 3.183-2.576 6.323-4.013 9.432-1.906 4.138-3.479 8.378-5.051 12.652a91.538 91.538 0 0 1-4.674 10.509h-3.361c-5.113-9.6-10.026-19.291-14.881-29.023l-2.277-4.558c-1.975-3.953-3.949-7.906-5.922-11.86-1.823-3.653-3.648-7.305-5.472-10.958-4.155-8.316-8.308-16.634-12.46-24.953l-2.232 3.188-1.255 1.794-3.16 4.52c-7.264 10.372-14.85 20.42-22.935 30.166l-.996 1.2a357.817 357.817 0 0 1-11.597 13.262 192.222 192.222 0 0 0-3.921 4.447c-2.131 2.456-4.411 4.733-6.744 6.996a87.176 87.176 0 0 0-3.824 4.218c-2.464 2.837-5.122 5.398-7.879 7.947l-1.5 1.397c-1.019.95-2.039 1.898-3.06 2.845a686.11 686.11 0 0 0-4.217 3.965c-4.21 3.979-8.448 7.847-12.979 11.464-1.842 1.476-3.634 3.002-5.431 4.533-5.765 4.809-11.808 9.257-17.859 13.698l-1.495 1.099c-10.648 7.781-21.875 14.729-33.46 21.024-.918.501-1.834 1.005-2.748 1.514-26.041 14.483-54.06 22.72-83.244 27.832-1.445.244-1.445.244-2.76.972-2.795.461-5.606.804-8.415 1.163-1.38.177-2.76.36-4.139.544-10.602 1.387-21.178 1.814-31.862 1.823l-1.736.002c-9.177-.007-18.096-.466-27.131-2.187l-1.61-.294c-16.584-3.105-32.911-9.208-46.125-19.876l-1.2-.95C18.947 621.405 8.717 602.168 3.03 582.19l-.398-1.376C.451 572.709-.045 564.49.003 556.137l.006-1.469c.119-20.372 4.265-41.252 10.972-60.501.853-2.505 1.659-5.023 2.469-7.542 3.565-11.041 7.28-21.881 12.209-32.406a290.334 290.334 0 0 0 2.206-4.871c14.862-32.981 38.256-62.777 62.437-89.424a270.51 270.51 0 0 0 3.616-4.097c6.441-7.364 13.224-14.339 20.149-21.245a4421.26 4421.26 0 0 1 7.803-7.804l1.405-1.41a151.458 151.458 0 0 1 8.173-7.567c1.984-1.722 3.882-3.536 5.793-5.339a178.352 178.352 0 0 1 10.502-9.092c1.71-1.4 3.336-2.859 4.961-4.355 2.939-2.674 6.001-5.134 9.139-7.567a344.828 344.828 0 0 0 7.78-6.231c5.85-4.813 11.864-9.312 18.168-13.515.345-2.126.345-2.126.342-4.686l.037-1.472c.039-1.629.064-3.257.089-4.885.024-1.153.05-2.305.076-3.458.068-3.107.124-6.214.178-9.321.058-3.227.127-6.454.195-9.681.158-7.657.296-15.314.428-22.972l.029-1.671c.149-8.596.298-17.192.414-25.789.11-7.93.289-15.854.56-23.781.429-12.585.646-25.172.787-37.763l.05-4.406.032-2.927c.064-5.797.187-11.584.406-17.378.614-16.395 1.001-29.492-7.88-43.773-1.697-2.805-3.014-5.758-4.357-8.744-1.699-3.638-3.488-7.23-5.292-10.817a661.196 661.196 0 0 1-5.98-12.244l-1.565-3.268c-.797-1.664-1.592-3.33-2.381-4.997a826.59 826.59 0 0 0-2.357-4.93l-.709-1.514c-1.219-2.514-2.162-4.368-4.701-5.763-1.781-.48-1.781-.48-3.361-.672V.084Z"/><path fill="#FAF6F4" d="M268.468 236.741c1.572 1.977 2.742 3.974 3.866 6.233l1.06 2.122 1.125 2.277 1.175 2.363a1110.57 1110.57 0 0 1 8.221 16.986c2.359 4.959 4.803 9.871 7.274 14.775a648.048 648.048 0 0 1 6.234 12.796c3.692 7.746 7.461 15.453 11.248 23.153 1.921 3.906 3.839 7.812 5.757 11.719l1.16 2.363a7967.507 7967.507 0 0 1 10.154 20.769c5.386 11.053 10.787 22.1 16.194 33.143 3.271 6.682 6.541 13.365 9.803 20.052l3.837 7.86.939 1.924a2412.56 2412.56 0 0 0 12.37 24.976 731.236 731.236 0 0 1 7.924 16.306c1.417 2.997 2.866 5.964 4.418 8.894l.871 1.662a163.515 163.515 0 0 0 1.639 3.029l.718 1.365.636 1.164c.76 2.94.019 5.47-1.349 8.104l-1.344 1.983-.734 1.097a358.86 358.86 0 0 1-2.388 3.494l-1.653 2.436c-6.403 9.404-13.048 18.632-20.408 27.314l-1.728 2.057a1229.496 1229.496 0 0 1-4.681 5.523 1328.486 1328.486 0 0 0-3.061 3.619c-3.238 3.823-6.475 7.564-10.085 11.045-1.2 1.2-2.301 2.435-3.399 3.727-2.838 3.267-5.873 6.317-8.939 9.368l-1.646 1.654c-2.89 2.885-5.83 5.664-8.926 8.327-1.874 1.623-3.672 3.325-5.48 5.021a181.898 181.898 0 0 1-10.069 8.698c-1.854 1.496-3.665 3.035-5.479 4.58a301.069 301.069 0 0 1-37.421 26.633c-1.899 1.152-3.752 2.359-5.607 3.579-3.819 2.44-7.828 4.432-11.9 6.404a205.366 205.366 0 0 0-3.748 1.893c-14.281 7.34-29.293 13.5-44.796 17.73-1.3.355-2.599.715-3.896 1.079-14.826 4.131-29.762 7.071-44.955 9.494l-2.443.397c-20.379 3.2-41.309 2.767-61.427-1.742l-1.833-.402c-20.714-4.706-40.725-17.339-52.347-35.357-7.187-11.676-11.762-24.65-13.725-38.196l-.192-1.301c-.646-4.94-.642-9.902-.649-14.877 0-.469-.002-.937-.004-1.42-.015-21.695-.015-21.695 2.862-27.448.2-1.145.378-2.295.546-3.446.767-4.754 1.92-9.381 3.139-14.035a339.1 339.1 0 0 0 .955-3.799c1.82-7.19 4.214-14.126 6.79-21.076l.784-2.126c6.492-17.418 14.379-33.924 23.774-49.968a541.053 541.053 0 0 0 2.747-4.762c5.955-10.369 12.695-20.231 19.757-29.874l.945-1.297a252.958 252.958 0 0 1 14.338-17.903c.72-.818 1.433-1.642 2.145-2.467 4.6-5.324 9.334-10.558 14.363-15.481 1.149-1.17 2.212-2.382 3.276-3.628 2.688-3.088 5.545-5.983 8.442-8.873l1.66-1.662a2812.77 2812.77 0 0 1 3.456-3.453c1.752-1.748 3.501-3.5 5.249-5.253l3.376-3.373 1.564-1.569c2.797-2.785 5.651-5.46 8.648-8.029 1.335-1.158 2.577-2.386 3.804-3.657 2.118-2.146 4.311-4.149 6.597-6.114 1.71-1.489 3.374-3.023 5.043-4.559 2.98-2.715 6.027-5.31 9.165-7.839a405.14 405.14 0 0 0 4.486-3.672c4.89-4.043 9.863-7.925 15.007-11.642l1.604-1.16c3.726-2.664 3.726-2.664 4.489-2.664.189 21.458-.321 42.897-.861 64.347a31154.38 31154.38 0 0 0-.717 29.149c-.241 9.799-.463 19.597-.632 29.397l-.044 2.573c-.068 3.993-.132 7.986-.191 11.98-.103 6.589-.27 13.136-.766 19.709-.242 3.505-.294 7.009-.34 10.521l-.038 2.278c-.039 2.373-.074 4.746-.109 7.119-.135 9.013-.285 18.019-.68 27.024-.253 5.75-.394 11.49-.447 17.245l-.024 2.23c-.033 2.989-.065 5.978-.077 8.967-.064 13.546-.618 29.279-10.538 39.752-3.791 2.866-7.709 2.785-12.312 2.731l-1.509-.009c-1.22-.008-2.439-.02-3.659-.033l.672 5.379h71.939v-5.379l-2.606-.323c-1.148-.157-2.297-.316-3.445-.475l-1.71-.206c-5.234-.751-9.534-2.754-12.829-7.022-6.442-8.859-7.868-18.455-7.801-29.127v-2.606c.001-2.346.011-4.692.023-7.038.009-1.994.013-3.989.018-5.983.051-21.096.34-42.19.673-63.284.07-4.483.137-8.967.203-13.45.282-19.196.598-38.391 1.026-57.584.229-10.324.392-20.648.527-30.973.063-4.903.134-9.805.204-14.707l.021-1.468c.125-8.615.267-17.229.443-25.843l.077-3.901c.055-2.86.121-5.719.218-8.578.068-2.054.067-4.091.016-6.145-.066-6.711-.066-6.711 1.98-9.219 1.761-1.265 3.542-2.215 5.481-3.184a318.351 318.351 0 0 0 4.102-2.6c1.461-.9 2.923-1.798 4.386-2.694l2.162-1.337a299.302 299.302 0 0 1 29.705-16.017 1802.43 1802.43 0 0 0 5.446-2.57l3.497-1.651 1.627-.768c2.498-1.171 4.989-2.305 7.567-3.29Zm411.464 232.624 2.417 1.169c19.65 9.82 34.075 26.347 41.453 46.889 4.814 14.814 4.679 30.44 2.437 45.689l-.225 1.577a254.06 254.06 0 0 1-5.742 28.384l-.463 1.801c-1.507 5.825-3.135 11.517-5.588 17.024l-1.174 2.715c-10.248 23.566-24.193 46.185-42.821 64.142-1.158 1.155-2.215 2.368-3.278 3.611-4.03 4.663-8.43 8.962-13.113 12.966a183.339 183.339 0 0 0-4.34 3.932c-13.283 12.317-28.013 23.005-43.484 32.394a241.293 241.293 0 0 0-5.791 3.695c-3.045 1.944-6.16 3.582-9.41 5.156a148.414 148.414 0 0 0-5.026 2.61c-6.348 3.444-12.789 6.571-19.39 9.505l-2.25 1a270.596 270.596 0 0 1-13.471 5.477 82.017 82.017 0 0 0-4.323 1.801c-2.321.963-4.64 1.686-7.054 2.374-3.746 1.12-7.439 2.404-11.13 3.692a202.292 202.292 0 0 1-21.785 6.206c-2.842.642-5.634 1.391-8.438 2.182-4.123 1.125-8.239 1.894-12.461 2.521-2.914.441-5.746 1.034-8.61 1.737-4.734 1.114-9.485 1.747-14.309 2.301-1.427.164-2.852.336-4.278.509-9.073 1.076-18.093 1.692-27.233 1.749l-2.678.02c-2.849.018-5.698.026-8.547.03l-1.475.002c-15.726.017-31.208-.499-46.802-2.685a779.92 779.92 0 0 0-4.836-.653c-17.193-2.297-34.19-5.505-51.181-8.976v-1.345a73.774 73.774 0 0 1 3.866-2.731c.811-.548 1.62-1.097 2.429-1.647l1.247-.846c8.828-6.087 17.191-12.942 25.339-19.904a295.733 295.733 0 0 1 5.904-4.874c2.951-2.401 5.776-4.911 8.585-7.475 1.802-1.6 3.656-3.116 5.534-4.627a79.153 79.153 0 0 0 7.172-6.537c1.111-1.116 2.264-2.144 3.459-3.17 3.574-3.085 6.997-6.33 10.439-9.559a644.25 644.25 0 0 1 5.069-4.707c5.763-5.305 11.324-10.792 16.825-16.369 2.971-3.001 5.985-5.874 9.189-8.623 1.669-1.482 3.135-3.11 4.616-4.779 4.525-5.022 9.339-9.756 14.149-14.502 3.108-3.08 6.136-6.174 8.964-9.514 1.07-1.227 2.198-2.368 3.36-3.507 1.995-1.964 3.832-4.021 5.659-6.14 1.777-2.02 3.604-3.99 5.434-5.962a363.522 363.522 0 0 0 8.74-9.749l1.944-2.237c2.269-2.613 4.534-5.229 6.796-7.848l1.088-1.258a659.878 659.878 0 0 0 13.031-15.55l3.026-3.697 1.523-1.862 2.92-3.567c3.708-4.527 7.401-9.066 11.088-13.609 1.507-1.856 3.017-3.71 4.528-5.563 3.466-4.25 6.909-8.513 10.279-12.839 2.663-3.417 5.417-6.737 8.234-10.028 2.582-3.03 5.046-6.143 7.492-9.283 1.871-2.4 3.769-4.772 5.705-7.12 2.224-2.702 4.4-5.436 6.555-8.194a621.448 621.448 0 0 1 8.236-10.295 658.028 658.028 0 0 0 8.964-11.234c2.367-3.024 4.784-6.004 7.213-8.978a444.658 444.658 0 0 0 9.297-11.815c2.392-3.109 4.884-6.137 7.375-9.166l1.05-1.282 1.046-1.264c1.053-1.308 1.053-1.308 2.002-2.778 1.668-2.484 2.586-3.715 5.417-4.874a46.47 46.47 0 0 1 2.807-.378l1.617-.209c22.686-2.475 48.45-1.22 69.187 8.949Zm-89.42-325.404c-.46 2.879-1.423 5.467-2.521 8.152l-.998 2.484a149.982 149.982 0 0 1-2.627 5.915c-2.869 6.268-5.382 12.695-7.973 19.082-6.063 14.947-6.063 14.947-8.594 20.386-1.907 4.195-3.633 8.471-5.399 12.726l-1.329 3.195a4621.429 4621.429 0 0 0-10.178 24.74c-3.911 9.56-7.9 19.086-11.938 28.594-2.141 5.048-4.211 10.107-6.156 15.235-1.307 3.395-2.724 6.741-4.141 10.091l-1.153 2.735-2.59 6.133c-9.685 22.932-18.925 46.03-27.98 69.216a1143.203 1143.203 0 0 1-11.169 27.565 2789.98 2789.98 0 0 0-3.876 9.277l-.807 1.934a4987.54 4987.54 0 0 0-5.531 13.332c-4.573 11.062-9.148 22.121-13.898 33.108a864.188 864.188 0 0 0-5.307 12.558l-1.213 2.925a1262.4 1262.4 0 0 0-2.323 5.647l-1.055 2.547-.933 2.272c-.827 1.691-.827 1.691-2.171 2.364a1320.508 1320.508 0 0 1-13.817-28.212 2032.295 2032.295 0 0 0-3.115-6.495l-1.085-2.253c-.684-1.422-1.369-2.842-2.054-4.263a470.026 470.026 0 0 1-1.869-3.927 97.256 97.256 0 0 0-1.95-3.837l-.971-1.889-.889-1.652c-1.135-4.651 1.406-9.801 2.975-14.164l1.261-3.57.665-1.867c1.155-3.251 2.294-6.507 3.434-9.764l.687-1.964c6.814-19.505 13.132-39.083 15.971-59.6l.199-1.431c.473-3.467.867-6.939 1.23-10.419l.188-1.75c1.28-12.318 1.388-24.606 1.369-36.975-.003-2.217.001-4.433.014-6.649.111-20.291-.998-40.218-4.933-60.181l-.483-2.467c-2.777-13.941-6.489-27.373-11.053-40.844l-.747-2.207-.677-1.979c-.486-1.583-.486-1.583-.486-2.927 8.268-2.327 16.584-4.193 25.002-5.898a407.95 407.95 0 0 0 15.65-3.49c7.01-1.702 14.061-3.228 21.109-4.77 4.781-1.051 9.541-2.143 14.282-3.362 4.466-1.143 8.951-2.045 13.488-2.859a466.43 466.43 0 0 0 7.039-1.33c12.628-2.414 25.32-4.362 38.037-6.237l4.234-.625c2.67-.395 5.341-.785 8.012-1.174l2.463-.363 2.273-.328 1.986-.288c1.732-.203 1.732-.203 4.421-.203Zm229.936 41.012c11.229 5.449 19.292 18.351 23.447 29.75a301.88 301.88 0 0 1 1.429 4.538l.748 2.219c2.593 7.874 3.538 15.645 3.496 23.918l-.009 2.365c-.142 11.126-1.519 22.062-4.907 32.68l-.786 2.563c-9.332 29.094-28.59 53.87-48.966 76.098l-1.002 1.105c-8.521 9.384-17.667 18.025-27.4 26.143a326.097 326.097 0 0 0-3.52 3.007c-12.341 10.493-26.422 19.281-40.689 26.893l-1.826.98c-29.332 15.589-61.273 25.112-93.644 31.964l-2.07.445c-1.886.404-3.773.801-5.662 1.194l-1.68.358c-3.8.77-3.8.77-6.052.02l12.964-17.593 2.328-3.161c1.968-2.672 3.938-5.343 5.91-8.012a1726.37 1726.37 0 0 0 12.486-17.107 1308.57 1308.57 0 0 1 9.186-12.549 1103.92 1103.92 0 0 0 7.887-10.828c4.155-5.771 8.369-11.498 12.595-17.217 1.967-2.663 3.93-5.329 5.894-7.995a7419.07 7419.07 0 0 1 7.083-9.604c4.194-5.679 8.36-11.377 12.485-17.108 3.031-4.205 6.106-8.378 9.187-12.548 2.652-3.593 5.278-7.203 7.886-10.828 3.467-4.815 6.972-9.6 10.498-14.371a756.58 756.58 0 0 0 6.1-8.362c4.91-6.759 10.174-13.22 15.598-19.571 1.608-1.886 3.178-3.8 4.74-5.725 3.293-4.043 6.691-7.993 10.095-11.943 1.359-1.579 2.715-3.161 4.071-4.744l2.008-2.343c1.702-1.983 3.4-3.969 5.094-5.959 3.676-4.313 7.399-8.565 11.23-12.742a227.667 227.667 0 0 0 3.808-4.289c2.566-2.955 5.223-5.824 7.878-8.698a236.04 236.04 0 0 0 4.184-4.704c2.426-2.782 4.915-5.499 7.435-8.197l1.257-1.361c2.9-3.106 5.958-5.941 9.206-8.681Z"/><path fill="#FAF6F4" d="M425.121 177.577c7.094 20.735 13.083 41.455 16.303 63.199l.308 2.021c2.066 14.879 2.454 29.912 2.426 44.912-.003 1.821.001 3.641.014 5.461.162 24.518-2.82 48.236-8.967 71.985l-.577 2.26c-2.576 10.007-5.568 19.822-8.919 29.592l-.505 1.475c-1.777 5.171-3.634 10.308-5.625 15.401l-.502 1.31c-1.194 2.997-1.194 2.997-2.697 3.748-4.479-8.889-8.923-17.789-13.197-26.78a2328.98 2328.98 0 0 0-8.191-17.005l-2.776-5.72-.693-1.429a7808.972 7808.972 0 0 1-6.91-14.281l-.589-1.22c-2.304-4.774-4.601-9.55-6.892-14.33-5.473-11.423-11.015-22.812-16.554-34.202a34026.053 34026.053 0 0 1-6.655-13.688 3755.258 3755.258 0 0 1-9.751-20.216 3455.115 3455.115 0 0 0-8.849-18.285c-4.131-8.497-8.25-16.999-12.3-25.535a826.595 826.595 0 0 0-2.286-4.743l-1.339-2.792-1.145-2.366a1250.4 1250.4 0 0 1-.704-1.794c.992-1.983 2.333-2.118 4.383-2.905l2.356-.913a1325.8 1325.8 0 0 1 2.547-.972c1.312-.505 2.622-1.012 3.933-1.518l2.628-1.014c2.359-.91 4.707-1.842 7.041-2.818 14.12-5.899 28.859-10.674 43.609-14.73 3.864-1.068 7.656-2.284 11.45-3.578 5.601-1.905 11.238-3.676 16.902-5.383.914-.276 1.828-.552 2.741-.83 1.283-.389 2.567-.774 3.852-1.159l2.256-.677c1.857-.481 1.857-.481 3.874-.481ZM223.058 760.136c2.191.318 4.383.596 6.581.855 7.977.956 15.711 2.543 23.516 4.427 1.899.449 3.801.872 5.707 1.287 7.37 1.611 14.557 3.47 21.708 5.878v2.017c-1.053.976-1.053.976-2.539 1.996l-1.66 1.152-1.81 1.222-1.851 1.271c-8.997 6.146-18.186 11.959-27.512 17.592-1.695 1.024-3.385 2.056-5.075 3.087-5.224 3.177-10.414 6.309-15.933 8.953-2.172 1.062-4.301 2.188-6.432 3.327a350.334 350.334 0 0 1-38.872 17.822c-1.763.69-3.51 1.41-5.26 2.133-3.423 1.371-6.9 2.392-10.46 3.341l-1.944.523c-9.734 2.569-19.43 4.224-29.516 4.278l-1.753.011c-1.215.006-2.43.011-3.646.013-1.826.007-3.652.028-5.478.049-7.096.043-13.549-.495-20.441-2.227l-2.487-.59c-10.68-2.619-19.26-7.766-25.756-16.738-3.617-6.141-3.412-12.53-2.432-19.4 3.276-12.353 16.277-22.336 26.69-28.662 8.648-5.022 17.669-8.49 27.306-11.087l1.498-.405c30.571-7.836 66.882-6.672 97.851-2.125Zm68.356-676.264 1.63.002c36.638.15 72.445 17.942 98.141 43.63 10.356 10.549 18.728 22.798 26.289 35.45l.894 1.482c2.048 3.487 2.048 3.487 2.048 5.745-4.692 1.894-9.477 3.15-14.371 4.413-27.516 7.219-54.133 16.378-80.742 26.416l-2.203.828c-1.378.519-2.755 1.04-4.132 1.563l-1.853.697-1.621.614c-1.305.43-1.305.43-2.65.43l-.594-1.31c-.92-2.03-1.844-4.057-2.768-6.085l-.932-2.059a381.426 381.426 0 0 0-6.335-13.163c-2.854-5.672-5.628-11.382-8.406-17.092l-.851-1.748a2654.85 2654.85 0 0 1-10.274-21.299c-2.801-5.878-5.651-11.731-8.499-17.586-4.156-8.546-8.303-17.096-12.374-25.683a789.147 789.147 0 0 0-2.104-4.38l-1.153-2.42-.956-1.987-.557-1.5.672-1.344c10.726-3.316 22.562-3.646 33.701-3.614Zm414.066 58.072c7.008.386 13.842 1.376 20.758 2.521l1.657.272c8.952 1.475 17.862 3.055 26.665 5.275l1.629.407c16.001 4.122 34.967 10.914 48.123 21.107-.912 2.036-1.934 3.446-3.511 5.018l-1.333 1.341-1.443 1.428-1.494 1.492a1537.973 1537.973 0 0 1-3.136 3.121 1634.444 1634.444 0 0 0-4.754 4.74l-3.054 3.043-1.419 1.416c-2.181 2.16-4.385 4.258-6.712 6.261-3.082 2.662-5.935 5.531-8.798 8.425l-1.702 1.709c-1.781 1.789-3.559 3.58-5.337 5.371a5872.54 5872.54 0 0 1-7.038 7.08l-1.603 1.62a150.617 150.617 0 0 1-8.497 7.917c-2.533 2.25-4.893 4.675-7.275 7.082l-1.657 1.665c-1.733 1.74-3.463 3.483-5.193 5.227a5562.287 5562.287 0 0 1-6.849 6.891l-1.558 1.575c-8.209 8.246-8.209 8.246-11.09 9.686-.671-2.864-.854-5.698-.985-8.626l-.076-1.579c-.083-1.727-.163-3.455-.242-5.182l-.173-3.665c-.121-2.574-.241-5.149-.359-7.723-.149-3.227-.301-6.453-.455-9.68-.602-12.676-1.146-25.35-1.486-38.036-.185-6.938-.489-13.845-.972-20.768a314.474 314.474 0 0 1-.631-26.431Zm-498.192-36.978c1.406 1.776 2.462 3.467 3.372 5.539l.743 1.674.759 1.737c3.642 8.263 7.491 16.423 11.372 24.575 5.135 10.787 10.196 21.602 15.117 32.488l1.216 2.69.598 1.325c4.224 9.331 8.583 18.6 12.919 27.879l1.608 3.453c.558 1.195 1.119 2.39 1.679 3.584 1.121 2.387 2.237 4.776 3.352 7.166l1.111 2.358 1.03 2.212.933 1.992c.666 1.674.666 1.674.666 3.691l-1.515.747c-16.151 7.977-31.675 16.473-46.892 26.146-1.628 1.034-3.256 2.068-4.887 3.097-.918.58-1.834 1.163-2.748 1.749-2.971 1.877-2.971 1.877-4.467 1.877-.102-16.209.169-32.395.584-48.598.062-2.445.121-4.89.18-7.335.266-11.052.55-22.1 1.026-33.145.281-6.65.41-13.301.526-19.955.177-9.992.37-19.982.709-29.97l.073-2.209c.178-4.934.526-9.847.936-14.767Zm441.045-66.56h.672c1 17.61 1.837 35.225 2.595 52.847.151 3.494.303 6.987.457 10.481.12 2.732.238 5.465.356 8.198l.169 3.869c.079 1.788.155 3.577.232 5.365l.069 1.568c.147 3.487.175 6.963.156 10.453-5.452.639-10.886.863-16.369 1.01-1.47.04-2.941.084-4.411.128-6.745.196-13.484.24-20.232.206.963-5.063 2.609-9.666 4.497-14.455l.91-2.339a667.559 667.559 0 0 1 5.757-14.248c1.397-3.356 2.676-6.746 3.93-10.157 1.701-4.574 3.56-9.081 5.412-13.595 2.289-5.582 4.519-11.168 6.605-16.83 1.461-3.929 2.993-7.831 4.522-11.735a1624.387 1624.387 0 0 1 2.459-6.288l.85-2.172c.691-1.634.691-1.634 1.364-2.306Z"/></g><defs><clipPath id="a"><path fill="#fff" d="M0 0h1000v852H0z"/></clipPath></defs></svg>